<svg width="435" height="424" viewBox="0 0 435 424" fill="none" xmlns="http://www.w3.org/2000/svg">
<rect x="3" y="3" width="429" height="418" rx="20" fill="#6366F1"/>
<path d="M214.8 324.2C197.6 324.2 181 322.1 165 317.9C149.2 313.5 136.3 307.9 126.3 301.1L145.8 257.3C155.2 263.3 166 268.3 178.2 272.3C190.6 276.1 202.9 278 215.1 278C223.3 278 229.9 277.3 234.9 275.9C239.9 274.3 243.5 272.3 245.7 269.9C248.1 267.3 249.3 264.3 249.3 260.9C249.3 256.1 247.1 252.3 242.7 249.5C238.3 246.7 232.6 244.4 225.6 242.6C218.6 240.8 210.8 239 202.2 237.2C193.8 235.4 185.3 233.1 176.7 230.3C168.3 227.5 160.6 223.9 153.6 219.5C146.6 214.9 140.9 209 136.5 201.8C132.1 194.4 129.9 185.1 129.9 173.9C129.9 161.3 133.3 149.9 140.1 139.7C147.1 129.5 157.5 121.3 171.3 115.1C185.1 108.9 202.3 105.8 222.9 105.8C236.7 105.8 250.2 107.4 263.4 110.6C276.8 113.6 288.7 118.1 299.1 124.1L280.8 168.2C270.8 162.8 260.9 158.8 251.1 156.2C241.3 153.4 231.8 152 222.6 152C214.4 152 207.8 152.9 202.8 154.7C197.8 156.3 194.2 158.5 192 161.3C189.8 164.1 188.7 167.3 188.7 170.9C188.7 175.5 190.8 179.2 195 182C199.4 184.6 205.1 186.8 212.1 188.6C219.3 190.2 227.1 191.9 235.5 193.7C244.1 195.5 252.6 197.8 261 200.6C269.6 203.2 277.4 206.8 284.4 211.4C291.4 215.8 297 221.7 301.2 229.1C305.6 236.3 307.8 245.4 307.8 256.4C307.8 268.6 304.3 279.9 297.3 290.3C290.5 300.5 280.2 308.7 266.4 314.9C252.8 321.1 235.6 324.2 214.8 324.2Z" fill="white"/>
<rect x="3" y="3" width="429" height="418" rx="20" stroke="#5053BC" stroke-width="6"/>
</svg>
